HIERARCHY
ROOT Root
{
  OFFSET 0.0 0.0 0.0
  CHANNELS 6 Xposition Yposition Zposition Zrotation Yrotation Xrotation
  JOINT Hips
  {
    OFFSET 0.0 100.0 0.0
    CHANNELS 6 Xposition Yposition Zposition Zrotation Yrotation Xrotation
    JOINT Spine1
    {
      OFFSET 5.003913 -0.037094 -0.013727
      CHANNELS 3 Zrotation Yrotation Xrotation
      JOINT Spine2
      {
        OFFSET 7.125363 -1e-06 0.0
        CHANNELS 3 Zrotation Yrotation Xrotation
        JOINT Chest
        {
          OFFSET 7.594027 1e-06 0.0
          CHANNELS 3 Zrotation Yrotation Xrotation
          JOINT Neck1
          {
            OFFSET 26.313086 -0.460272 -0.181672
            CHANNELS 3 Zrotation Yrotation Xrotation
            JOINT Neck2
            {
              OFFSET 8.045911 0.0 0.0
              CHANNELS 3 Zrotation Yrotation Xrotation
              JOINT Head
              {
                OFFSET 6.432774 0.0 0.0
                CHANNELS 3 Zrotation Yrotation Xrotation
                JOINT HeadEnd
                {
                  OFFSET 16.169773 0.06451 0.00362
                  CHANNELS 3 Zrotation Yrotation Xrotation
                }
                JOINT Jaw
                {
                  OFFSET 0.108741 3.12938 0.002639
                  CHANNELS 3 Zrotation Yrotation Xrotation
                }
                JOINT LeftEye
                {
                  OFFSET 4.45173 8.166359 3.206392
                  CHANNELS 3 Zrotation Yrotation Xrotation
                }
                JOINT RightEye
                {
                  OFFSET 4.436895 8.135758 -3.222429
                  CHANNELS 3 Zrotation Yrotation Xrotation
                }
              }
            }
          }
          JOINT LeftShoulder
          {
            OFFSET 23.218927 5.195579 1.621656
            CHANNELS 3 Zrotation Yrotation Xrotation
            JOINT LeftArm
            {
              OFFSET 15.902118 2e-06 -2e-06
              CHANNELS 3 Zrotation Yrotation Xrotation
              JOINT LeftForeArm
              {
                OFFSET 28.739307 0.0 -1e-06
                CHANNELS 3 Zrotation Yrotation Xrotation
                JOINT LeftHand
                {
                  OFFSET 27.093981 -4e-06 0.0
                  CHANNELS 3 Zrotation Yrotation Xrotation
                  JOINT LeftHandThumb1
                  {
                    OFFSET 2.276781 3.380274 0.83384
                    CHANNELS 3 Zrotation Yrotation Xrotation
                    JOINT LeftHandThumb2
                    {
                      OFFSET 4.705309 -1e-06 -1e-06
                      CHANNELS 3 Zrotation Yrotation Xrotation
                      JOINT LeftHandThumb3
                      {
                        OFFSET 2.798515 0.0 3e-06
                        CHANNELS 3 Zrotation Yrotation Xrotation
                        JOINT LeftHandThumbEnd
                        {
                          OFFSET 3.180793 4e-06 -4e-06
                          CHANNELS 3 Zrotation Yrotation Xrotation
                        }
                      }
                    }
                  }
                  JOINT LeftHandIndex1
                  {
                    OFFSET 3.247786 2.352677 0.137192
                    CHANNELS 3 Zrotation Yrotation Xrotation
                    JOINT LeftHandIndex2
                    {
                      OFFSET 6.367095 1e-06 0.0
                      CHANNELS 3 Zrotation Yrotation Xrotation
                      JOINT LeftHandIndex3
                      {
                        OFFSET 3.662364 0.0 0.0
                        CHANNELS 3 Zrotation Yrotation Xrotation
                        JOINT LeftHandIndex4
                        {
                          OFFSET 2.329242 4e-06 -4e-06
                          CHANNELS 3 Zrotation Yrotation Xrotation
                          JOINT LeftHandIndexEnd
                          {
                            OFFSET 2.767823 1e-06 0.0
                            CHANNELS 3 Zrotation Yrotation Xrotation
                          }
                        }
                      }
                    }
                  }
                  JOINT LeftHandMiddle1
                  {
                    OFFSET 3.163612 0.945023 -0.406112
                    CHANNELS 3 Zrotation Yrotation Xrotation
                    JOINT LeftHandMiddle2
                    {
                      OFFSET 6.276789 3e-06 0.0
                      CHANNELS 3 Zrotation Yrotation Xrotation
                      JOINT LeftHandMiddle3
                      {
                        OFFSET 4.35652 -1e-06 4e-06
                        CHANNELS 3 Zrotation Yrotation Xrotation
                        JOINT LeftHandMiddle4
                        {
                          OFFSET 2.996877 0.0 8e-06
                          CHANNELS 3 Zrotation Yrotation Xrotation
                          JOINT LeftHandMiddleEnd
                          {
                            OFFSET 2.323256 3e-06 -4e-06
                            CHANNELS 3 Zrotation Yrotation Xrotation
                          }
                        }
                      }
                    }
                  }
                  JOINT LeftHandRing1
                  {
                    OFFSET 2.882606 -0.309162 0.107445
                    CHANNELS 3 Zrotation Yrotation Xrotation
                    JOINT LeftHandRing2
                    {
                      OFFSET 6.033198 0.0 4e-06
                      CHANNELS 3 Zrotation Yrotation Xrotation
                      JOINT LeftHandRing3
                      {
                        OFFSET 4.350578 3e-06 0.0
                        CHANNELS 3 Zrotation Yrotation Xrotation
                        JOINT LeftHandRing4
                        {
                          OFFSET 2.651321 2e-06 -7e-06
                          CHANNELS 3 Zrotation Yrotation Xrotation
                          JOINT LeftHandRingEnd
                          {
                            OFFSET 1.937663 1e-06 -4e-06
                            CHANNELS 3 Zrotation Yrotation Xrotation
                          }
                        }
                      }
                    }
                  }
                  JOINT LeftHandPinky1
                  {
                    OFFSET 2.865315 -1.525436 0.575687
                    CHANNELS 3 Zrotation Yrotation Xrotation
                    JOINT LeftHandPinky2
                    {
                      OFFSET 5.54936 1e-06 -8e-06
                      CHANNELS 3 Zrotation Yrotation Xrotation
                      JOINT LeftHandPinky3
                      {
                        OFFSET 3.070974 0.0 -4e-06
                        CHANNELS 3 Zrotation Yrotation Xrotation
                        JOINT LeftHandPinky4
                        {
                          OFFSET 1.549672 1e-06 0.0
                          CHANNELS 3 Zrotation Yrotation Xrotation
                          JOINT LeftHandPinkyEnd
                          {
                            OFFSET 1.952123 0.0 0.0
                            CHANNELS 3 Zrotation Yrotation Xrotation
                          }
                        }
                      }
                    }
                  }
                }
              }
            }
          }
          JOINT RightShoulder
          {
            OFFSET 23.161716 5.296122 -1.380114
            CHANNELS 3 Zrotation Yrotation Xrotation
            JOINT RightArm
            {
              OFFSET -16.027195 -2e-06 1.1e-05
              CHANNELS 3 Zrotation Yrotation Xrotation
              JOINT RightForeArm
              {
                OFFSET -28.736639 4e-06 2e-06
                CHANNELS 3 Zrotation Yrotation Xrotation
                JOINT RightHand
                {
                  OFFSET -27.133619 6e-06 0.0
                  CHANNELS 3 Zrotation Yrotation Xrotation
                  JOINT RightHandThumb1
                  {
                    OFFSET -2.274328 -3.351035 -0.83067
                    CHANNELS 3 Zrotation Yrotation Xrotation
                    JOINT RightHandThumb2
                    {
                      OFFSET -4.703594 -3e-06 2e-06
                      CHANNELS 3 Zrotation Yrotation Xrotation
                      JOINT RightHandThumb3
                      {
                        OFFSET -2.794935 -4e-06 -3e-06
                        CHANNELS 3 Zrotation Yrotation Xrotation
                        JOINT RightHandThumbEnd
                        {
                          OFFSET -3.183852 4e-06 1e-06
                          CHANNELS 3 Zrotation Yrotation Xrotation
                        }
                      }
                    }
                  }
                  JOINT RightHandIndex1
                  {
                    OFFSET -3.253496 -2.33755 -0.127667
                    CHANNELS 3 Zrotation Yrotation Xrotation
                    JOINT RightHandIndex2
                    {
                      OFFSET -6.344434 0.0 0.0
                      CHANNELS 3 Zrotation Yrotation Xrotation
                      JOINT RightHandIndex3
                      {
                        OFFSET -3.654871 0.0 -8e-06
                        CHANNELS 3 Zrotation Yrotation Xrotation
                        JOINT RightHandIndex4
                        {
                          OFFSET -2.327586 -1e-06 0.0
                          CHANNELS 3 Zrotation Yrotation Xrotation
                          JOINT RightHandIndexEnd
                          {
                            OFFSET -2.770001 3e-06 8e-06
                            CHANNELS 3 Zrotation Yrotation Xrotation
                          }
                        }
                      }
                    }
                  }
                  JOINT RightHandMiddle1
                  {
                    OFFSET -3.168223 -0.944764 0.411762
                    CHANNELS 3 Zrotation Yrotation Xrotation
                    JOINT RightHandMiddle2
                    {
                      OFFSET -6.266691 -1e-06 -4e-06
                      CHANNELS 3 Zrotation Yrotation Xrotation
                      JOINT RightHandMiddle3
                      {
                        OFFSET -4.348901 0.0 0.0
                        CHANNELS 3 Zrotation Yrotation Xrotation
                        JOINT RightHandMiddle4
                        {
                          OFFSET -3.00024 2e-06 -4e-06
                          CHANNELS 3 Zrotation Yrotation Xrotation
                          JOINT RightHandMiddleEnd
                          {
                            OFFSET -2.321477 -4e-06 -4e-06
                            CHANNELS 3 Zrotation Yrotation Xrotation
                          }
                        }
                      }
                    }
                  }
                  JOINT RightHandRing1
                  {
                    OFFSET -2.885654 0.293261 -0.119232
                    CHANNELS 3 Zrotation Yrotation Xrotation
                    JOINT RightHandRing2
                    {
                      OFFSET -6.032835 -1e-06 -4e-06
                      CHANNELS 3 Zrotation Yrotation Xrotation
                      JOINT RightHandRing3
                      {
                        OFFSET -4.33881 0.0 -4e-06
                        CHANNELS 3 Zrotation Yrotation Xrotation
                        JOINT RightHandRing4
                        {
                          OFFSET -2.654903 -4e-06 -4e-06
                          CHANNELS 3 Zrotation Yrotation Xrotation
                          JOINT RightHandRingEnd
                          {
                            OFFSET -1.935122 0.0 4e-06
                            CHANNELS 3 Zrotation Yrotation Xrotation
                          }
                        }
                      }
                    }
                  }
                  JOINT RightHandPinky1
                  {
                    OFFSET -2.866241 1.503904 -0.60527
                    CHANNELS 3 Zrotation Yrotation Xrotation
                    JOINT RightHandPinky2
                    {
                      OFFSET -5.553177 -2e-06 0.0
                      CHANNELS 3 Zrotation Yrotation Xrotation
                      JOINT RightHandPinky3
                      {
                        OFFSET -3.062664 -1e-06 -4e-06
                        CHANNELS 3 Zrotation Yrotation Xrotation
                        JOINT RightHandPinky4
                        {
                          OFFSET -1.546529 2e-06 4e-06
                          CHANNELS 3 Zrotation Yrotation Xrotation
                          JOINT RightHandPinkyEnd
                          {
                            OFFSET -1.952341 0.0 -4e-06
                            CHANNELS 3 Zrotation Yrotation Xrotation
                          }
                        }
                      }
                    }
                  }
                }
              }
            }
          }
        }
      }
    }
    JOINT LeftLeg
    {
      OFFSET -8.443107 2.567604 10.043214
      CHANNELS 3 Zrotation Yrotation Xrotation
      JOINT LeftShin
      {
        OFFSET 43.229198 1e-06 -1e-06
        CHANNELS 3 Zrotation Yrotation Xrotation
        JOINT LeftFoot
        {
          OFFSET 42.298611 1e-06 1e-06
          CHANNELS 3 Zrotation Yrotation Xrotation
          JOINT LeftToeBase
          {
            OFFSET 14.165858 1e-06 0.0
            CHANNELS 3 Zrotation Yrotation Xrotation
            JOINT LeftToeEnd
            {
              OFFSET 6.7141 -0.234461 0.0
              CHANNELS 3 Zrotation Yrotation Xrotation
            }
          }
        }
      }
    }
    JOINT RightLeg
    {
      OFFSET -8.303923 2.592729 -10.047278
      CHANNELS 3 Zrotation Yrotation Xrotation
      JOINT RightShin
      {
        OFFSET -43.369682 0.0 1e-06
        CHANNELS 3 Zrotation Yrotation Xrotation
        JOINT RightFoot
        {
          OFFSET -42.260784 4e-06 2e-06
          CHANNELS 3 Zrotation Yrotation Xrotation
          JOINT RightToeBase
          {
            OFFSET -14.222245 -2e-06 -1e-06
            CHANNELS 3 Zrotation Yrotation Xrotation
            JOINT RightToeEnd
            {
              OFFSET -6.660062 0.232574 -2e-06
              CHANNELS 3 Zrotation Yrotation Xrotation
            }
          }
        }
      }
    }
  }
}
MOTION
Frames: 5
Frame Time: 0.03333333333333333
0.0 0.0 0.0 0.0 -0.0 0.0 3.01011 97.363953 396.72403 91.459496 1.751837 77.978836 4.120605 -1.406466 0.485628 -10.50053 -0.451441 2.061089 22.097048 -1.533245 -0.342653 31.227909 -3.592512 3.034951 -2.707495 -1.010091 1.284487 -37.439331 -0.989007 1.627332 5e-06 -0.0 0.0 -0.003954 0.040523 -0.021838 0.023088 -0.009961 0.027845 0.031468 0.080844 -0.078676 -99.624222 -68.432373 124.513885 31.502338 -40.124058 24.357359 40.958778 -0.505382 -0.371833 1.341229 7.112897 2.765423 17.636625 -26.322723 52.411182 -19.466658 -14.395596 29.410381 1e-06 -8.774819 -4e-06 16.31823 -18.129232 6.159367 -0.609777 -1.795654 -3.889327 -4.807087 -11.046807 -2.937847 4e-06 -20.976011 -3e-06 -5.019969 -25.033552 -4.031878 7e-06 1e-06 0.0 -10.634533 -5.68697 -3.565587 10.573271 -17.922945 -3.113899 2e-06 -13.821205 -2e-06 -0.50178 -31.181498 -4.027015 -11.596095 -60.397118 7.841344 -13.982711 -7.150197 -2.87504 13.772727 -8.401489 -3.21824 0.347733 -34.211544 0.771654 -0.963029 -17.733366 2.62102 -0.0 -0.0 0.0 -17.346415 -20.095215 -4.201781 21.757555 -1.638374 3.866427 1e-06 -6.338822 -1e-06 -1.697587 -22.591738 -6.194005 0.0 -5e-06 -1e-06 64.623596 -78.359779 139.870102 31.68824 -28.778353 30.229782 51.664467 0.553374 0.847639 -4.975403 8.467007 -10.68853 22.18211 -20.375895 49.933323 -16.701805 -16.743525 28.476526 -0.0 -12.690597 -2e-06 16.402065 -17.15336 2.544401 -0.10592 -1.513856 -4.27588 -5.039041 -5.61287 -2.953555 2e-06 -11.02052 -2e-06 -6.111299 -15.89533 -3.840468 -0.0 0.0 -0.0 -10.283367 -5.680287 -4.341836 11.028288 -11.302401 -2.372633 -1.384271 -14.238577 -6.320118 -0.625442 -26.924183 -3.827598 -4.398956 -50.070675 -3.475437 -13.708521 -7.363474 -3.720937 18.141142 -14.052734 -3.242672 3e-06 -18.787266 -1e-06 -0.429713 -8.456041 2.555503 -0.0 -1e-06 -2e-06 -15.923532 -20.094482 -5.473583 30.419197 -7.19082 1.735931 1e-06 -8.162925 -1e-06 -1.861906 -22.861467 -6.167941 -1e-06 -1e-06 0.0 159.27356 -1.850696 -15.578738 17.516228 0.020628 -0.185257 -63.732182 -8.389677 -0.812869 -4.977764 1.469228 2.135711 -1.0 -0.0 -0.0 15.509499 -8.662943 -7.503117 34.587048 -0.496138 0.646469 -70.315552 9.22497 3.04324 -21.01218 0.888036 1.515157 -1.000002 -0.0 0.0 
0.0 0.0 0.0 0.0 -0.0 0.0 3.600131 97.588203 400.292267 91.982025 2.442826 78.284348 4.624138 -1.723116 0.353925 -10.31019 -0.532028 1.836629 22.017931 -1.504041 -0.510224 31.421247 -3.320699 3.039893 -2.659269 -1.005629 1.24435 -37.693829 -1.126024 1.750609 6e-06 -0.0 0.0 0.008436 0.037967 0.002885 0.032113 -0.00224 0.047975 0.046013 0.067536 -0.050393 -97.507668 -69.196358 122.325272 31.962954 -40.198814 23.678749 41.814594 -0.522252 -0.31286 1.238602 7.314422 2.370555 17.636627 -26.322733 52.411213 -19.466665 -14.395598 29.410398 -0.0 -8.774822 -2e-06 16.310678 -18.063957 6.067624 -0.609776 -1.795654 -3.889329 -4.807088 -11.046813 -2.937852 5e-06 -20.976021 -4e-06 -5.019967 -25.03356 -4.031883 8e-06 1e-06 1e-06 -10.634535 -5.686972 -3.565588 10.573275 -17.922953 -3.113905 4e-06 -13.821209 -2e-06 -0.501776 -31.181505 -4.027017 -11.526809 -60.375145 7.660429 -13.982714 -7.150199 -2.87504 13.772731 -8.401494 -3.218243 0.347737 -34.211555 0.77165 -0.963028 -17.733372 2.621019 -1e-06 -0.0 0.0 -17.34642 -20.095221 -4.201783 21.757561 -1.638376 3.866427 2e-06 -6.338824 -0.0 -1.697586 -22.591749 -6.19401 1e-06 -4e-06 -1e-06 67.184532 -78.248924 137.145523 31.685614 -29.69408 29.580484 51.655003 0.364849 0.805296 -4.749424 8.607942 -10.992863 22.182119 -20.375898 49.933327 -16.701815 -16.743528 28.476538 -2e-06 -12.690603 -3e-06 16.500242 -17.270296 2.527435 -0.105919 -1.513857 -4.275884 -5.039042 -5.612872 -2.953555 4e-06 -11.020527 -1e-06 -6.111299 -15.895338 -3.840474 -0.0 -1e-06 1e-06 -10.283373 -5.68029 -4.341839 11.028296 -11.302407 -2.372632 -1.384269 -14.238584 -6.320124 -0.625439 -26.924196 -3.8276 -4.272185 -50.140514 -3.479643 -13.708527 -7.363478 -3.72094 18.141151 -14.052741 -3.242673 6e-06 -18.78727 -3e-06 -0.429711 -8.456047 2.555504 -0.0 -1e-06 -0.0 -15.923538 -20.094486 -5.473586 30.419222 -7.19083 1.73593 4e-06 -8.16293 -3e-06 -1.861902 -22.861473 -6.167944 -0.0 -3e-06 1e-06 160.838104 -0.673448 -16.29497 20.353045 0.046861 -0.155794 -67.990234 -7.897439 -0.014126 -4.824052 1.468213 2.12842 -0.999999 -0.0 0.0 12.251051 -10.808584 -7.896143 44.533417 -0.610797 0.668627 -66.869469 9.37667 3.307875 -19.377232 0.856026 1.541605 -1.000003 0.0 -0.0 
0.0 0.0 0.0 0.0 -0.0 0.0 4.165227 97.71875 403.727783 92.388672 3.332456 78.844849 5.257957 -2.053488 0.175814 -10.128056 -0.606144 1.509423 22.013659 -1.348712 -0.706574 31.818184 -3.141707 3.045526 -2.662671 -0.906026 1.149803 -38.119358 -1.332859 1.96637 6e-06 -0.0 -0.0 0.03179 0.033386 0.036076 0.011267 0.001588 0.067112 0.026402 0.053995 -0.002121 -95.224983 -70.047157 120.031494 32.508087 -39.900127 22.721485 42.808056 -0.645278 -0.244158 1.176096 7.55447 1.793188 17.636631 -26.322729 52.411201 -19.466667 -14.395598 29.410393 -1e-06 -8.774823 -2e-06 16.328859 -18.03743 5.955282 -0.609776 -1.795655 -3.889329 -4.80709 -11.046813 -2.937851 6e-06 -20.976021 -2e-06 -5.019968 -25.033564 -4.031884 6e-06 -3e-06 2e-06 -10.634537 -5.686971 -3.56559 10.573279 -17.922956 -3.113904 5e-06 -13.821211 -4e-06 -0.501774 -31.181511 -4.027014 -11.226931 -60.278618 7.355912 -13.982716 -7.150198 -2.87504 13.772734 -8.401497 -3.218243 0.347742 -34.211559 0.77165 -0.963027 -17.733376 2.62102 -1e-06 -0.0 -0.0 -17.346422 -20.095221 -4.201785 21.757565 -1.638377 3.866428 2e-06 -6.338825 -1e-06 -1.697585 -22.591751 -6.194009 -1e-06 -5e-06 -1e-06 68.941216 -77.914024 135.352142 31.905884 -30.380354 28.902168 51.55555 0.19928 0.636065 -4.36045 8.713102 -11.355506 22.182116 -20.375891 49.933315 -16.70182 -16.74353 28.47653 -4e-06 -12.690601 -3e-06 16.494244 -17.293467 2.540308 -0.10592 -1.513854 -4.275881 -5.039039 -5.61287 -2.953553 5e-06 -11.020524 -2e-06 -6.111295 -15.89533 -3.840473 0.0 -1e-06 -1e-06 -10.28337 -5.680287 -4.34184 11.028296 -11.302407 -2.372635 -1.384266 -14.238581 -6.320121 -0.625434 -26.924189 -3.8276 -4.232991 -50.104977 -3.359537 -13.708527 -7.363475 -3.720939 18.141153 -14.052741 -3.242678 7e-06 -18.78727 -1e-06 -0.429711 -8.456044 2.555507 -0.0 -1e-06 -1e-06 -15.923532 -20.094482 -5.473587 30.419214 -7.19083 1.735926 5e-06 -8.162927 -3e-06 -1.861897 -22.861467 -6.167945 1e-06 -3e-06 1e-06 163.072037 0.509974 -17.160908 22.141161 0.063068 -0.168154 -71.70591 -6.934443 0.817452 -5.027754 1.491246 2.117505 -0.999999 0.0 0.0 8.302385 -12.698751 -7.956553 55.213322 -0.701095 0.634081 -64.118599 8.863518 3.304259 -13.29473 0.745002 1.552734 -1.000001 0.0 1e-06 
0.0 0.0 0.0 0.0 -0.0 0.0 4.666407 97.802849 407.012756 92.746902 4.284655 79.733589 5.870593 -2.375139 -0.02162 -9.974132 -0.691186 1.108112 22.129402 -1.065484 -0.983754 32.353653 -3.02426 3.056143 -2.706992 -0.834115 0.998989 -38.668449 -1.54253 2.203281 6e-06 0.0 -0.0 0.050448 0.028779 0.067911 -0.01982 0.005275 0.084982 -0.004897 0.040701 0.047064 -93.147392 -70.840652 117.908875 33.164982 -39.244946 21.671556 43.654148 -0.644763 -0.156176 1.149306 8.347395 1.015441 17.636631 -26.322729 52.411186 -19.466661 -14.395597 29.410389 -1e-06 -8.774822 -2e-06 16.341166 -18.117176 5.890682 -0.609776 -1.795653 -3.889328 -4.807088 -11.046809 -2.937849 7e-06 -20.976015 -2e-06 -5.019968 -25.033552 -4.031882 6e-06 -3e-06 -1e-06 -10.634534 -5.686971 -3.565588 10.573277 -17.922955 -3.1139 4e-06 -13.821209 -2e-06 -0.501779 -31.181507 -4.027009 -10.893491 -60.171871 7.096262 -13.982714 -7.150197 -2.875044 13.77273 -8.401491 -3.218242 0.347737 -34.211544 0.771653 -0.963028 -17.733366 2.621022 1e-06 2e-06 -1e-06 -17.346416 -20.095217 -4.201782 21.757557 -1.638376 3.866427 1e-06 -6.338824 1e-06 -1.697588 -22.591743 -6.194007 1e-06 -4e-06 -2e-06 69.989761 -77.372971 134.395035 32.389626 -30.971769 28.290405 51.250568 0.116268 0.437567 -4.040692 8.931637 -11.806494 22.182121 -20.375898 49.933311 -16.701817 -16.743528 28.476532 -4e-06 -12.690601 2e-06 16.416576 -17.279505 2.553397 -0.10592 -1.513856 -4.275882 -5.039042 -5.612873 -2.953554 4e-06 -11.020527 -0.0 -6.1113 -15.895338 -3.840469 0.0 -1e-06 -1e-06 -10.283371 -5.680288 -4.341837 11.028296 -11.302406 -2.372632 -1.384269 -14.238583 -6.320123 -0.625438 -26.924191 -3.827599 -4.292045 -49.99337 -3.211454 -13.708524 -7.363476 -3.720939 18.14115 -14.052742 -3.242678 6e-06 -18.787271 0.0 -0.429711 -8.456045 2.555505 -1e-06 -1e-06 0.0 -15.923536 -20.094484 -5.473588 30.41921 -7.190827 1.73593 3e-06 -8.162927 -2e-06 -1.8619 -22.861471 -6.167942 1e-06 -0.0 0.0 165.665939 1.735763 -17.723198 23.1465 0.05126 -0.210405 -74.789413 -5.823137 1.450605 -5.262157 1.511645 2.097785 -1.000001 0.0 0.0 4.233592 -14.08033 -7.807378 64.750511 -0.700384 0.536482 -64.155579 8.765977 3.186372 -9.160969 0.700203 1.572605 -1.000003 0.0 -0.0 
0.0 0.0 0.0 0.0 -0.0 0.0 5.080302 97.970261 410.126343 92.909035 5.156675 80.827431 6.343098 -2.537794 -0.233455 -9.837768 -0.750723 0.675647 22.338869 -0.672918 -1.287905 32.912556 -2.982699 3.068058 -2.743109 -0.859949 0.835179 -38.995567 -1.760395 2.35874 6e-06 0.0 -0.0 0.047684 0.026397 0.084936 -0.039502 -0.000225 0.098346 -0.024745 0.041478 0.070856 -91.602577 -71.493805 116.288223 33.803364 -38.468414 20.288588 44.215473 -0.628858 -0.090653 1.099752 9.688794 0.384566 17.636627 -26.322733 52.41119 -19.466658 -14.395594 29.410381 -0.0 -8.774819 -3e-06 16.328165 -18.262293 5.851679 -0.609776 -1.795653 -3.889327 -4.807088 -11.046809 -2.93785 4e-06 -20.976015 -2e-06 -5.019971 -25.033556 -4.031879 7e-06 1e-06 -1e-06 -10.634531 -5.686969 -3.565589 10.57327 -17.922947 -3.113899 2e-06 -13.821205 -3e-06 -0.501781 -31.181498 -4.027012 -10.729229 -60.094608 6.987016 -13.982711 -7.150198 -2.875043 13.772725 -8.401489 -3.21824 0.347733 -34.211552 0.771653 -0.963031 -17.733368 2.621022 1e-06 0.0 -1e-06 -17.346413 -20.095213 -4.201782 21.757553 -1.638375 3.866427 1e-06 -6.338822 2e-06 -1.69759 -22.591742 -6.194004 -1e-06 -4e-06 -3e-06 70.583076 -76.729942 133.981491 32.970055 -31.639776 27.782324 50.710197 0.160023 0.27403 -4.050172 9.180448 -12.437016 22.182114 -20.375896 49.933327 -16.701813 -16.74353 28.476532 -4e-06 -12.6906 2e-06 16.324596 -17.302725 2.535787 -0.10592 -1.513856 -4.275883 -5.03904 -5.612871 -2.953555 4e-06 -11.020523 -1e-06 -6.111297 -15.895334 -3.840472 0.0 1e-06 -0.0 -10.283372 -5.680288 -4.341839 11.028296 -11.302406 -2.372634 -1.384269 -14.238582 -6.32012 -0.625437 -26.924194 -3.827601 -4.260498 -49.866539 -3.217966 -13.708527 -7.363475 -3.720939 18.141153 -14.05274 -3.242675 6e-06 -18.787271 -3e-06 -0.429714 -8.456043 2.555506 -1e-06 1e-06 -0.0 -15.923536 -20.094486 -5.473586 30.419222 -7.190827 1.735927 3e-06 -8.162927 -1e-06 -1.861899 -22.861471 -6.167942 -1e-06 -0.0 -2e-06 168.546082 2.827513 -17.605944 23.237843 0.035279 -0.211099 -77.007126 -5.013419 1.753126 -5.334694 1.512277 2.083035 -0.999999 1e-06 0.0 0.304054 -14.592819 -7.417121 71.783829 -0.613086 0.431904 -66.817215 9.770118 2.823951 -7.987913 0.702205 1.619531 -1.000003 0.0 -0.0 
